# xmcd CD database file generated by OrangeCD 5.9
#
# Track frame offsets:
#	151
#	16579
#	30793
#	46059
#	63446
#	82676
#	106256
#	125193
#	145596
#
# Disc length: 2572 seconds
#
# Revision: 0
# Processed by: cddbd v1.5.1PL0 Copyright (c) Steve Scherf et al.
# Submitted via: OrangeCD 5.9
#
DISCID=5d0a0a09
DTITLE=Various Artist - Cafe Music Network 2002 Multi-genre Vol 2 CD1
DYEAR=2002
DGENRE=
TTITLE0=Jimmy Smith - 8 Counts for Rita
TTITLE1=Scott Dunbar - Easy Rider
TTITLE2=B.B. King - Yes Man
TTITLE3=RL Burnside - Walkin' Blues
TTITLE4=Junior Wells - Hoo-Doo Man
TTITLE5=Johnny Winter - Be Careful with a Fool
TTITLE6=Darrel Nulisch - Once in a Lifetime
TTITLE7=Johnny Lang - Breakin' Me
TTITLE8=Stevie Ray Vaughn - Texas Flood
EXTD=mdb
EXTT0=
EXTT1=
EXTT2=
EXTT3=
EXTT4=
EXTT5=
EXTT6=
EXTT7=
EXTT8=
PLAYORDER=
